<?xml version="1.0" encoding="UTF-8"?>
<svg width="40px" height="56px" viewBox="0 0 40 56" version="1.1" xmlns="http://www.w3.org/2000/svg" xmlns:xlink="http://www.w3.org/1999/xlink">
    <!-- Generator: Sketch 50.2 (55047) - http://www.bohemiancoding.com/sketch -->
    <title>adobe_classic_color_whiteType</title>
    <desc>Created with Sketch.</desc>
    <defs></defs>
    <g id="SUSI-Flows" stroke="none" stroke-width="1" fill="none" fill-rule="evenodd">
        <g id="Sprint-1---04" transform="translate(-328.000000, -384.000000)" fill-rule="nonzero">
            <g id="adobe_classic_color_whiteType" transform="translate(328.000000, 384.000000)">
                <polygon id="Shape" fill="#E1251B" points="24.9639669 0.774743802 39.5119339 0.774743802 39.5119339 35.6382149"></polygon>
                <polygon id="Shape" fill="#E1251B" points="14.6340496 0.774743802 0.0860826446 0.774743802 0.0860826446 35.6382149"></polygon>
                <polygon id="Shape" fill="#E1251B" points="19.7990083 13.6871405 29.0959339 35.6382149 22.9840661 35.6382149 20.2294215 28.6655207 13.4288926 28.6655207"></polygon>
                <g id="Group" transform="translate(0.000000, 41.319669)" fill="#FFFFFF">
                    <path d="M2.84072727,10.416 L2.23814876,13.4288926 C2.23814876,13.5149752 2.15206612,13.6010579 2.06598347,13.6010579 L0.258247934,13.6010579 C0.172165289,13.6010579 0.0860826446,13.6010579 0.0860826446,13.4288926 L2.66856198,2.49639669 C2.75464463,2.15206612 2.75464463,1.97990083 2.75464463,1.46340496 C2.75464463,1.37732231 2.75464463,1.37732231 2.84072727,1.37732231 L5.50928926,1.37732231 C5.5953719,1.37732231 5.68145455,1.37732231 5.68145455,1.5494876 L8.69434711,13.6010579 C8.69434711,13.6871405 8.69434711,13.7732231 8.60826446,13.7732231 L6.54228099,13.7732231 C6.45619835,13.7732231 6.3701157,13.6871405 6.3701157,13.6010579 L5.68145455,10.5881653 L2.84072727,10.5881653 L2.84072727,10.416 Z M5.16495868,8.35001653 C4.90671074,6.97269421 4.39021488,4.8206281 4.21804959,3.44330579 C4.0458843,4.8206281 3.61547107,6.62836364 3.35722314,8.35001653 L5.16495868,8.35001653 Z" id="Shape"></path>
                    <path d="M8.95259504,8.8665124 C8.95259504,6.02578512 10.5881653,3.87371901 13.2567273,3.87371901 L13.6010579,3.87371901 L13.6010579,0.602578512 C13.6010579,0.516495868 13.6010579,0.516495868 13.6871405,0.516495868 L15.753124,0.516495868 C15.8392066,0.516495868 15.8392066,0.516495868 15.8392066,0.602578512 L15.8392066,11.621157 C15.8392066,11.879405 15.8392066,12.3098182 15.9252893,12.9123967 C15.9252893,12.9984793 15.9252893,12.9984793 15.8392066,13.084562 C15.0644628,13.5149752 14.0314711,13.7732231 13.084562,13.7732231 C10.5020826,13.6871405 8.95259504,12.1376529 8.95259504,8.8665124 Z M13.5149752,5.93970248 C13.4288926,5.93970248 13.3428099,5.85361983 13.084562,5.85361983 C12.0515702,5.85361983 11.1907438,6.80052893 11.1907438,8.78042975 C11.1907438,10.8464132 11.9654876,11.621157 13.084562,11.621157 C13.2567273,11.621157 13.4288926,11.621157 13.5149752,11.5350744 L13.5149752,5.93970248 Z" id="Shape"></path>
                    <path d="M24.0170579,8.78042975 C24.0170579,11.7933223 22.7258182,13.7732231 20.4876694,13.7732231 C17.9912727,13.7732231 16.958281,11.621157 16.958281,8.78042975 C16.958281,5.93970248 18.2495207,3.87371901 20.4876694,3.87371901 C22.7258182,3.87371901 24.0170579,5.68145455 24.0170579,8.78042975 Z M19.1964298,8.78042975 C19.1964298,10.5881653 19.5407603,11.7072397 20.4015868,11.7072397 C21.2624132,11.7072397 21.6067438,10.6742479 21.6067438,8.78042975 C21.6067438,6.97269421 21.2624132,5.85361983 20.4015868,5.85361983 C19.7129256,5.85361983 19.1964298,6.80052893 19.1964298,8.78042975 Z" id="Shape"></path>
                    <path d="M27.374281,0.516495868 C27.4603636,0.516495868 27.4603636,0.516495868 27.4603636,0.602578512 L27.4603636,3.95980165 C27.7186116,3.87371901 28.0629421,3.87371901 28.4933554,3.87371901 C30.4732562,3.87371901 32.0227438,5.42320661 32.0227438,8.35001653 C32.0227438,11.7933223 30.042843,13.6871405 27.5464463,13.6871405 C26.8577851,13.6871405 26.0830413,13.6010579 25.3082975,13.3428099 C25.2222149,13.3428099 25.2222149,13.2567273 25.2222149,13.1706446 L25.2222149,0.602578512 C25.2222149,0.516495868 25.2222149,0.516495868 25.3082975,0.516495868 L27.374281,0.516495868 Z M28.1490248,5.93970248 C27.9768595,5.93970248 27.6325289,5.93970248 27.4603636,6.02578512 L27.4603636,11.7072397 C27.6325289,11.7072397 27.7186116,11.7072397 27.8907769,11.7072397 C28.7516033,11.7072397 29.784595,10.8464132 29.784595,8.43609917 C29.784595,6.54228099 29.0098512,5.93970248 28.1490248,5.93970248 Z" id="Shape"></path>
                    <path d="M35.121719,9.29692562 C35.121719,10.7603306 35.6382149,11.7072397 37.2737851,11.7072397 C37.790281,11.7072397 38.2206942,11.621157 38.7371901,11.4489917 C38.8232727,11.4489917 38.9093554,11.4489917 38.9093554,11.5350744 L38.9093554,13.1706446 C38.9093554,13.3428099 38.9093554,13.3428099 38.7371901,13.4288926 C38.2206942,13.6871405 37.4459504,13.7732231 36.8433719,13.7732231 C34.0026446,13.7732231 32.9696529,11.7072397 32.9696529,8.95259504 C32.9696529,6.11186777 34.2608926,3.87371901 36.4990413,3.87371901 C38.8232727,3.87371901 39.5119339,5.93970248 39.5119339,7.66135537 C39.5119339,8.26393388 39.4258512,8.8665124 39.4258512,9.12476033 C39.4258512,9.21084298 39.3397686,9.29692562 39.253686,9.29692562 C39.0815207,9.29692562 38.4789421,9.38300826 37.4459504,9.38300826 L35.121719,9.38300826 L35.121719,9.29692562 Z M36.7572893,7.48919008 C37.1016198,7.48919008 37.2737851,7.48919008 37.3598678,7.48919008 C37.3598678,7.40310744 37.3598678,7.31702479 37.3598678,7.31702479 C37.3598678,6.62836364 37.1016198,5.85361983 36.326876,5.85361983 C35.5521322,5.85361983 35.2938843,6.62836364 35.121719,7.57527273 L36.7572893,7.57527273 L36.7572893,7.48919008 Z" id="Shape"></path>
                </g>
            </g>
        </g>
    </g>
</svg>